# xmcd
#
# Track frame offsets: 
#        150
#        21249
#        40747
#        60543
#        87550
#        102878
#        118345
#        140786
#        157868
#        174566
#        193803
#        206565
#        219663
#        238102
#        253970
#        271032
#
# Disc length: 3861 seconds
#
# Revision: 0
# Processed by: cddbd v1.4PL0 Copyright (c) Steve Scherf et al.
# Submitted via: ExactAudioCopy v0.95a3
#
DISCID=ef0f1310
DTITLE=周启生 - 周启生精选DISC1
DYEAR=1900
DGENRE=
TTITLE0=浅草妖姬
TTITLE1=ANNA
TTITLE2=化蝶
TTITLE3=THE MODEL
TTITLE4=独醉之后
TTITLE5=天长地久
TTITLE6=漫长路
TTITLE7=温馨的刺针
TTITLE8=不能替代你
TTITLE9=习惯与你一起
TTITLE10=不顾一切
TTITLE11=时光配件
TTITLE12=迷惑
TTITLE13=WHY WHY WHY
TTITLE14=午夜天使
TTITLE15=不可思议
EXTD=
EXTT0=
EXTT1=
EXTT2=
EXTT3=
EXTT4=
EXTT5=
EXTT6=
EXTT7=
EXTT8=
EXTT9=
EXTT10=
EXTT11=
EXTT12=
EXTT13=
EXTT14=
EXTT15=
PLAYORDER=
